<svg width="20" height="19" viewBox="0 0 20 19" fill="none" xmlns="http://www.w3.org/2000/svg">
<path fill-rule="evenodd" clip-rule="evenodd" d="M9.74992 1.50012C9.65892 1.50012 9.43492 1.52512 9.31592 1.76312L7.48992 5.41412C7.20092 5.99112 6.64392 6.39212 5.99992 6.48412L1.91192 7.07312C1.64192 7.11212 1.54992 7.31212 1.52192 7.39612C1.49692 7.47712 1.45692 7.68312 1.64292 7.86112L4.59892 10.7011C5.06992 11.1541 5.28392 11.8071 5.17192 12.4461L4.47592 16.4561C4.43292 16.7071 4.58992 16.8531 4.65992 16.9031C4.73392 16.9591 4.93192 17.0701 5.17692 16.9421L8.83192 15.0471C9.40792 14.7501 10.0939 14.7501 10.6679 15.0471L14.3219 16.9411C14.5679 17.0681 14.7659 16.9571 14.8409 16.9031C14.9109 16.8531 15.0679 16.7071 15.0249 16.4561L14.3269 12.4461C14.2149 11.8071 14.4289 11.1541 14.8999 10.7011L17.8559 7.86112C18.0429 7.68312 18.0029 7.47612 17.9769 7.39612C17.9499 7.31212 17.8579 7.11212 17.5879 7.07312L13.4999 6.48412C12.8569 6.39212 12.2999 5.99112 12.0109 5.41312L10.1829 1.76312C10.0649 1.52512 9.84092 1.50012 9.74992 1.50012ZM4.94692 18.5001C4.53392 18.5001 4.12392 18.3701 3.77292 18.1141C3.16692 17.6701 2.86992 16.9371 2.99892 16.1991L3.69492 12.1891C3.72092 12.0401 3.66992 11.8891 3.55992 11.7831L0.603916 8.94312C0.0599161 8.42212 -0.135084 7.65212 0.0949161 6.93712C0.326916 6.21412 0.940916 5.69712 1.69792 5.58912L5.78592 5.00012C5.94392 4.97812 6.07992 4.88112 6.14792 4.74312L7.97492 1.09112C8.31192 0.418122 8.99192 0.00012207 9.74992 0.00012207C10.5079 0.00012207 11.1879 0.418122 11.5249 1.09112L13.3529 4.74212C13.4219 4.88112 13.5569 4.97812 13.7139 5.00012L17.8019 5.58912C18.5589 5.69712 19.1729 6.21412 19.4049 6.93712C19.6349 7.65212 19.4389 8.42212 18.8949 8.94312L15.9389 11.7831C15.8289 11.8891 15.7789 12.0401 15.8049 12.1881L16.5019 16.1991C16.6299 16.9381 16.3329 17.6711 15.7259 18.1141C15.1109 18.5651 14.3099 18.6261 13.6309 18.2721L9.97792 16.3791C9.83492 16.3051 9.66392 16.3051 9.52092 16.3791L5.86792 18.2731C5.57592 18.4251 5.26092 18.5001 4.94692 18.5001Z" fill="white"/>
</svg>
